<svg xmlns="http://www.w3.org/2000/svg" version="1.1" xmlns:xlink="http://www.w3.org/1999/xlink" xmlns:svgjs="http://svgjs.dev/svgjs" width="1000" height="1000" viewBox="0 0 1000 1000"><rect width="1000" height="1000" fill="#ffffff"></rect><g transform="matrix(0.7,0,0,0.7,149.57575757575756,282.1265587044535)"><svg viewBox="0 0 396 247" data-background-color="#636365" preserveAspectRatio="xMidYMid meet" height="623" width="1000" xmlns="http://www.w3.org/2000/svg" xmlns:xlink="http://www.w3.org/1999/xlink"><g id="tight-bounds" transform="matrix(1,0,0,1,0.2400000000000091,-0.09999999999999432)"><svg viewBox="0 0 395.52 247.2" height="247.2" width="395.52"><g><svg></svg></g><g><svg viewBox="0 0 395.52 247.2" height="247.2" width="395.52"><g transform="matrix(1,0,0,1,123.46944415584414,47.215199999999996)"><svg viewBox="0 0 148.5811116883117 152.7696" height="152.7696" width="148.5811116883117"><g><svg viewBox="0 0 148.5811116883117 152.7696" height="152.7696" width="148.5811116883117"><g><svg viewBox="0 0 148.5811116883117 152.7696" height="152.7696" width="148.5811116883117"><g><svg viewBox="0 0 148.5811116883117 152.7696" height="152.7696" width="148.5811116883117"><g id="textblocktransform"><svg viewBox="0 0 148.5811116883117 152.7696" height="152.7696" width="148.5811116883117" id="textblock"><g><svg viewBox="0 0 148.5811116883117 152.7696" height="152.7696" width="148.5811116883117"><g transform="matrix(1,0,0,1,0,0)"><svg width="148.5811116883117" viewBox="0.25 -34.650001525878906 33.70000076293945 34.650001525878906" height="152.7696" data-palette-color="#d2d6dc"><path d="M6.95 0L0.25 0 0.25-34.65 6.95-34.65 6.95-19.5 18.5-34.65 26.5-34.65 14.2-18.85 27.2 0 19.5 0 9.5-14.8 6.95-11.5 6.95 0Z" opacity="1" transform="matrix(1,0,0,1,0,0)" fill="#000000" class="wordmark-text-0" data-fill-palette-color="primary" id="text-0"></path></svg></g></svg></g></svg></g></svg></g></svg></g></svg></g></svg></g></svg></g><path d="M89.749 41.215L89.749 0 336.949 0 336.949 247.2 89.749 247.2 89.749 205.985 103.526 205.985 103.526 233.423 323.172 233.423 323.172 13.777 103.526 13.777 103.526 41.215Z" fill="#000000" stroke="transparent" data-fill-palette-color="primary"></path></svg></g><defs></defs></svg><rect width="395.52" height="247.2" fill="none" stroke="none" visibility="hidden"></rect></g></svg></g></svg></svg>